<svg xmlns="http://www.w3.org/2000/svg" viewBox="0 0 256 256" fill="none" role="img" aria-labelledby="title desc">
  <title id="title">Paint Studio icon</title>
  <desc id="desc">Dark rounded square with a simple square canvas, abstract drawing shapes, and a pencil.</desc>
  <defs>
    <linearGradient id="bg" x1="36" y1="28" x2="220" y2="226" gradientUnits="userSpaceOnUse">
      <stop offset="0" stop-color="#16243A"/>
      <stop offset="1" stop-color="#0B111C"/>
    </linearGradient>
    <linearGradient id="blue" x1="54" y1="48" x2="202" y2="208" gradientUnits="userSpaceOnUse">
      <stop offset="0" stop-color="#C9F5FF"/>
      <stop offset="0.55" stop-color="#80D7FF"/>
      <stop offset="1" stop-color="#2F9BFF"/>
    </linearGradient>
    <linearGradient id="pencil" x1="82" y1="186" x2="174" y2="108" gradientUnits="userSpaceOnUse">
      <stop offset="0" stop-color="#47BFFF"/>
      <stop offset="1" stop-color="#DFF8FF"/>
    </linearGradient>
  </defs>

  <rect x="28" y="24" width="200" height="208" rx="40" fill="url(#bg)" stroke="url(#blue)" stroke-width="9"/>

  <rect x="68" y="61" width="120" height="120" rx="19" fill="#132135" stroke="url(#blue)" stroke-width="7"/>
  <circle cx="105" cy="102" r="12" fill="#8EDCFF" opacity="0.5"/>
  <path d="M135 87C150 96 154 117 143 131C132 145 111 144 100 130" stroke="#D9F8FF" stroke-width="8" stroke-linecap="round" stroke-linejoin="round" opacity="0.75"/>
  <path d="M151 145L169 119L180 150Z" fill="#7ED4FF" opacity="0.82"/>

  <path d="M79 181L150 123" stroke="#49BFFF" stroke-width="21" stroke-linecap="round"/>
  <path d="M94 184L165 126" stroke="url(#pencil)" stroke-width="14" stroke-linecap="round"/>
  <path d="M166 126L184 111L191 120L172 135Z" fill="#DFF8FF"/>
  <path d="M185 111L195 103L191 120Z" fill="#7ED4FF"/>
</svg>
