<svg xmlns="http://www.w3.org/2000/svg" viewBox="0 0 256 256" fill="none" role="img" aria-labelledby="title desc">
  <title id="title">Paint Studio icon</title>
  <desc id="desc">Dark rounded square with a clean canvas drawing and simple paint brush.</desc>
  <defs>
    <linearGradient id="bg" x1="36" y1="28" x2="220" y2="226" gradientUnits="userSpaceOnUse">
      <stop offset="0" stop-color="#16243A"/>
      <stop offset="1" stop-color="#0B111C"/>
    </linearGradient>
    <linearGradient id="blue" x1="54" y1="48" x2="202" y2="208" gradientUnits="userSpaceOnUse">
      <stop offset="0" stop-color="#C9F5FF"/>
      <stop offset="0.55" stop-color="#80D7FF"/>
      <stop offset="1" stop-color="#2F9BFF"/>
    </linearGradient>
    <linearGradient id="brush" x1="78" y1="188" x2="172" y2="112" gradientUnits="userSpaceOnUse">
      <stop offset="0" stop-color="#4BBFFF"/>
      <stop offset="1" stop-color="#EAFBFF"/>
    </linearGradient>
  </defs>

  <rect x="28" y="24" width="200" height="208" rx="40" fill="url(#bg)" stroke="url(#blue)" stroke-width="9"/>

  <rect x="63" y="61" width="130" height="104" rx="19" fill="#132135" stroke="url(#blue)" stroke-width="7"/>
  <path d="M91 89H154" stroke="#8EDCFF" stroke-width="7" stroke-linecap="round" opacity="0.3"/>
  <path d="M91 111H134" stroke="#8EDCFF" stroke-width="7" stroke-linecap="round" opacity="0.2"/>
  <path d="M102 139C113 120 134 118 148 136" stroke="#D9F8FF" stroke-width="8" stroke-linecap="round" stroke-linejoin="round" opacity="0.72"/>
  <circle cx="151" cy="103" r="8" fill="#7ED4FF" opacity="0.9"/>

  <path d="M79 196H178" stroke="#86D9FF" stroke-width="12" stroke-linecap="round" opacity="0.82"/>
  <path d="M82 185L143 139" stroke="#53C8FF" stroke-width="22" stroke-linecap="round"/>
  <path d="M133 148L162 119" stroke="url(#brush)" stroke-width="15" stroke-linecap="round"/>
  <path d="M161 119L178 103" stroke="#EAFBFF" stroke-width="13" stroke-linecap="round"/>
  <path d="M181 101C192 111 195 125 187 137C176 132 170 121 173 111C175 106 178 103 181 101Z" fill="#7ED4FF"/>
</svg>
