<svg xmlns="http://www.w3.org/2000/svg" viewBox="0 0 128 128" role="img" aria-label="3D Viewer icon">
<defs>
  <linearGradient id="top" x1="40" y1="32" x2="88" y2="62" gradientUnits="userSpaceOnUse">
    <stop offset="0" stop-color="#FFC1DB"/><stop offset="1" stop-color="#FF97C1"/>
  </linearGradient>
  <linearGradient id="left" x1="34" y1="48" x2="64" y2="98" gradientUnits="userSpaceOnUse">
    <stop offset="0" stop-color="#F14489"/><stop offset="1" stop-color="#D02870"/>
  </linearGradient>
  <linearGradient id="right" x1="94" y1="48" x2="64" y2="98" gradientUnits="userSpaceOnUse">
    <stop offset="0" stop-color="#7F267A"/><stop offset="1" stop-color="#591A5C"/>
  </linearGradient>
  <radialGradient id="shadow" cx="64" cy="104" r="30" gradientUnits="userSpaceOnUse">
    <stop offset="0" stop-color="#000" stop-opacity="0.55"/><stop offset="1" stop-color="#000" stop-opacity="0"/>
  </radialGradient>
  <linearGradient id="bg" x1="16" y1="8" x2="112" y2="120" gradientUnits="userSpaceOnUse">
    <stop offset="0" stop-color="#1E1425"/><stop offset="1" stop-color="#130E1A"/>
  </linearGradient>
  <linearGradient id="rim" x1="0" y1="0" x2="128" y2="128" gradientUnits="userSpaceOnUse">
    <stop offset="0" stop-color="#FF6FA8" stop-opacity="0.42"/>
    <stop offset="0.45" stop-color="#FF6FA8" stop-opacity="0.2"/>
    <stop offset="1" stop-color="#FF6FA8" stop-opacity="0.3"/>
  </linearGradient>
  <linearGradient id="frame" x1="10" y1="6" x2="118" y2="122" gradientUnits="userSpaceOnUse">
    <stop offset="0" stop-color="#FF6FA8" stop-opacity="0.9"/><stop offset="0.5" stop-color="#FF6FA8" stop-opacity="0.62"/><stop offset="1" stop-color="#FF6FA8" stop-opacity="0.75"/>
  </linearGradient>
  <radialGradient id="glow" cx="64" cy="64" r="44" gradientUnits="userSpaceOnUse">
    <stop offset="0" stop-color="#FF6FA8" stop-opacity="0.16"/><stop offset="1" stop-color="#FF6FA8" stop-opacity="0"/>
  </radialGradient>
</defs>
<path d="M24 0H104L128 24V104L104 128H24L0 104V24Z" fill="url(#bg)"/>
<path d="M24.8 1.5H103.2L126.5 24.8V103.2L103.2 126.5H24.8L1.5 103.2V24.8Z" fill="none" stroke="url(#rim)" stroke-width="2"/>
<path d="M32 10H96L118 32V96L96 118H32L10 96V32Z" fill="none" stroke="url(#frame)" stroke-width="3.0" stroke-linejoin="round"/>
<circle cx="64" cy="64" r="44" fill="url(#glow)"/>
<ellipse cx="64" cy="104" rx="30" ry="6" fill="url(#shadow)"/>
<g transform="rotate(-14 64 68)">
  <ellipse cx="64" cy="68" rx="47" ry="14" fill="none" stroke="#E0709B" stroke-width="2.5" opacity="0.8"/>
</g>
<path d="M64 30L94 47L64 64L34 47Z" fill="url(#top)"/>
<path d="M34 47L64 64V98L34 81Z" fill="url(#left)"/>
<path d="M94 47L64 64V98L94 81Z" fill="url(#right)"/>
<path d="M64 30L94 47V81L64 98L34 81V47Z" fill="none" stroke="#2A0F24" stroke-width="2" stroke-linejoin="round" opacity="0.6"/>
<path d="M34 47L64 64L94 47M64 64V98" fill="none" stroke="#FFE6F1" stroke-width="2" stroke-linecap="round" stroke-linejoin="round" opacity="0.85"/>
<path d="M44 47L64 36L84 47" fill="none" stroke="#FFFFFF" stroke-width="2" stroke-linecap="round" stroke-linejoin="round" opacity="0.45"/>
<g transform="rotate(-14 64 68)">
  <path d="M17 68A47 14 0 0 0 111 68" fill="none" stroke="#FF8FB8" stroke-width="3" stroke-linecap="round"/>
</g>
<g transform="rotate(-14 64 68)"><circle cx="104" cy="75" r="4.5" fill="#FFE3F0"/></g>
</svg>
