<svg xmlns="http://www.w3.org/2000/svg" viewBox="0 0 128 128" role="img" aria-labelledby="title desc">
  <title id="title">Krita Random Exporter icon</title>
  <desc id="desc">Dark chamfered square with a clean painted card and export dots.</desc>
  <defs>
    <linearGradient id="bg" x1="16" y1="12" x2="112" y2="116" gradientUnits="userSpaceOnUse">
      <stop offset="0" stop-color="#20162f"/>
      <stop offset="1" stop-color="#110d1a"/>
    </linearGradient>
    <linearGradient id="card" x1="26" y1="31" x2="94" y2="99" gradientUnits="userSpaceOnUse">
      <stop offset="0" stop-color="#403050"/>
      <stop offset="1" stop-color="#1A1422"/>
    </linearGradient>
    <linearGradient id="paint" x1="34" y1="48" x2="90" y2="83" gradientUnits="userSpaceOnUse">
      <stop offset="0" stop-color="#FFB84D"/>
      <stop offset="0.5" stop-color="#FF5F93"/>
      <stop offset="1" stop-color="#7B70FF"/>
    </linearGradient>
  </defs>
  <path d="M24 0H104L128 24V104L104 128H24L0 104V24Z" fill="url(#bg)"/>
  <path d="M32 10H96L118 32V96L96 118H32L10 96V32Z" fill="none" stroke="#3e3157" stroke-width="2"/>
  <path d="M39 32H81L95 46V82L81 96H39L25 82V46Z" fill="url(#card)" stroke="#75628D" stroke-width="3"/>
  <path d="M36 72C48 52 69 45 90 52C79 59 77 67 85 77C67 71 53 75 36 87C34 81 34 76 36 72Z" fill="url(#paint)"/>
  <path d="M42 69C56 73 71 71 84 64" fill="none" stroke="#FFF3E0" stroke-width="5" stroke-linecap="round" opacity="0.9"/>
  <circle cx="103" cy="49" r="4.5" fill="#FFD56A"/>
  <circle cx="103" cy="64" r="4.5" fill="#7CD7FF"/>
  <circle cx="103" cy="79" r="4.5" fill="#A58BFF"/>
</svg>
