<svg xmlns="http://www.w3.org/2000/svg" viewBox="0 0 128 128" role="img" aria-labelledby="title desc">
  <title id="title">Krita Random Exporter icon</title>
  <desc id="desc">Dark rounded square with stacked art cards, a colorful paint stroke, and export spark dots.</desc>
  <defs>
    <linearGradient id="bg" x1="16" y1="12" x2="112" y2="116" gradientUnits="userSpaceOnUse">
      <stop offset="0" stop-color="#20162f"/>
      <stop offset="1" stop-color="#110d1a"/>
    </linearGradient>
    <linearGradient id="stackBack" x1="30" y1="34" x2="94" y2="98" gradientUnits="userSpaceOnUse">
      <stop offset="0" stop-color="#31253f"/>
      <stop offset="1" stop-color="#1b1523"/>
    </linearGradient>
    <linearGradient id="stackFront" x1="38" y1="30" x2="92" y2="92" gradientUnits="userSpaceOnUse">
      <stop offset="0" stop-color="#3f3150"/>
      <stop offset="1" stop-color="#241b2d"/>
    </linearGradient>
    <linearGradient id="paint" x1="36" y1="34" x2="88" y2="86" gradientUnits="userSpaceOnUse">
      <stop offset="0" stop-color="#ffb84d"/>
      <stop offset=".45" stop-color="#ff5f93"/>
      <stop offset="1" stop-color="#726dff"/>
    </linearGradient>
  </defs>
  <rect width="128" height="128" rx="28" fill="url(#bg)"/>
  <rect x="10" y="10" width="108" height="108" rx="22" fill="none" stroke="#3e3157" stroke-width="2"/>
  <rect x="28" y="34" width="54" height="42" rx="10" fill="url(#stackBack)" stroke="#5d4d74" stroke-width="2"/>
  <rect x="40" y="50" width="54" height="42" rx="10" fill="url(#stackFront)" stroke="#77628f" stroke-width="2"/>
  <path d="M42 59c8-15 19-22 31-22 7 0 14 2 20 7-4 3-6 6-8 11 0 1 0 2-1 3 7 5 11 11 14 20-8-4-15-5-23-5-15 0-29 5-42 15 1-13 4-22 9-29z" fill="url(#paint)"/>
  <path d="M48 55c7 4 14 6 21 6 5 0 10-1 15-3" fill="none" stroke="#fff3e0" stroke-linecap="round" stroke-width="4" opacity=".8"/>
  <circle cx="94" cy="34" r="4.5" fill="#ffd56a"/>
  <circle cx="102" cy="46" r="3.5" fill="#ff86b8"/>
  <circle cx="95" cy="58" r="3.5" fill="#7cd7ff"/>
  <circle cx="106" cy="62" r="4" fill="#9f8bff"/>
</svg>
