<svg xmlns="http://www.w3.org/2000/svg" viewBox="0 0 128 128" role="img" aria-labelledby="title desc">
  <title id="title">Krita Random Exporter icon</title>
  <desc id="desc">Dark rounded square with one art card, a clean paint stroke, and export dots.</desc>
  <defs>
    <linearGradient id="bg" x1="16" y1="12" x2="112" y2="116" gradientUnits="userSpaceOnUse">
      <stop offset="0" stop-color="#20162f"/>
      <stop offset="1" stop-color="#110d1a"/>
    </linearGradient>
    <linearGradient id="card" x1="30" y1="34" x2="90" y2="96" gradientUnits="userSpaceOnUse">
      <stop offset="0" stop-color="#3F3150"/>
      <stop offset="1" stop-color="#1B1523"/>
    </linearGradient>
    <linearGradient id="paint" x1="35" y1="42" x2="89" y2="82" gradientUnits="userSpaceOnUse">
      <stop offset="0" stop-color="#FFB84D"/>
      <stop offset="0.5" stop-color="#FF5F93"/>
      <stop offset="1" stop-color="#726DFF"/>
    </linearGradient>
  </defs>
  <rect width="128" height="128" rx="28" fill="url(#bg)"/>
  <rect x="10" y="10" width="108" height="108" rx="22" fill="none" stroke="#3e3157" stroke-width="2"/>
  <rect x="29" y="36" width="61" height="55" rx="11" fill="url(#card)" stroke="#6C5985" stroke-width="3"/>
  <path d="M38 69C49 52 66 45 86 49C78 56 76 62 81 69C67 66 53 70 39 82C38 78 37 74 38 69Z" fill="url(#paint)"/>
  <path d="M43 65C54 69 67 68 79 62" fill="none" stroke="#FFF3E0" stroke-width="4" stroke-linecap="round" opacity="0.82"/>
  <path d="M91 47H101" stroke="#FFD56A" stroke-width="5" stroke-linecap="round"/>
  <path d="M91 63H106" stroke="#7CD7FF" stroke-width="5" stroke-linecap="round"/>
  <path d="M91 79H100" stroke="#A58BFF" stroke-width="5" stroke-linecap="round"/>
</svg>
