<svg xmlns="http://www.w3.org/2000/svg" viewBox="0 0 128 128" role="img" aria-labelledby="title desc">
  <title id="title">Krita Random Exporter icon</title>
  <desc id="desc">Dark rounded square with layered cards, a paint droplet, and a scatter of export dots.</desc>
  <defs>
    <linearGradient id="bg" x1="18" y1="14" x2="110" y2="116" gradientUnits="userSpaceOnUse">
      <stop offset="0" stop-color="#20162f"/>
      <stop offset="1" stop-color="#110d1a"/>
    </linearGradient>
    <linearGradient id="card" x1="34" y1="36" x2="88" y2="90" gradientUnits="userSpaceOnUse">
      <stop offset="0" stop-color="#302540"/>
      <stop offset="1" stop-color="#1c1526"/>
    </linearGradient>
    <linearGradient id="paint" x1="42" y1="30" x2="86" y2="92" gradientUnits="userSpaceOnUse">
      <stop offset="0" stop-color="#ffb84d"/>
      <stop offset=".5" stop-color="#ff5e8a"/>
      <stop offset="1" stop-color="#7b68ff"/>
    </linearGradient>
  </defs>
  <rect width="128" height="128" rx="28" fill="url(#bg)"/>
  <rect x="10" y="10" width="108" height="108" rx="22" fill="none" stroke="#3e3157" stroke-width="2"/>
  <rect x="32" y="30" width="42" height="54" rx="10" fill="url(#card)" stroke="#5e4c7c" stroke-width="2"/>
  <rect x="44" y="42" width="42" height="54" rx="10" fill="url(#card)" stroke="#73608f" stroke-width="2"/>
  <rect x="56" y="54" width="42" height="54" rx="10" fill="url(#card)" stroke="#8975a4" stroke-width="2"/>
  <path d="M48 34c8-8 20-8 28 0 7 7 7 17 0 24-5 5-12 7-19 10-5 2-9 4-12 8-3-4-7-6-12-8-7-3-14-5-19-10-7-7-7-17 0-24 8-8 20-8 28 0l3 3z" fill="url(#paint)"/>
  <circle cx="94" cy="34" r="4.5" fill="#ffd56a"/>
  <circle cx="102" cy="46" r="3.5" fill="#ff84b3"/>
  <circle cx="90" cy="48" r="3" fill="#79d8ff"/>
  <circle cx="102" cy="60" r="4" fill="#9a87ff"/>
</svg>
