<svg xmlns="http://www.w3.org/2000/svg" viewBox="0 0 128 128" role="img" aria-labelledby="title desc">
  <title id="title">YouTube Position Saver icon</title>
  <desc id="desc">Dark chamfered square with a red play button and a highlighted progress marker.</desc>
  <defs>
    <linearGradient id="bg" x1="18" y1="14" x2="110" y2="116" gradientUnits="userSpaceOnUse">
      <stop offset="0" stop-color="#211527"/>
      <stop offset="1" stop-color="#120d18"/>
    </linearGradient>
    <linearGradient id="screen" x1="28" y1="32" x2="100" y2="88" gradientUnits="userSpaceOnUse">
      <stop offset="0" stop-color="#ff5e5e"/>
      <stop offset="1" stop-color="#d91010"/>
    </linearGradient>
  </defs>
  <path d="M24 0H104L128 24V104L104 128H24L0 104V24Z" fill="url(#bg)"/>
  <path d="M32 10H96L118 32V96L96 118H32L10 96V32Z" fill="none" stroke="#3e3157" stroke-width="2"/>
  <path d="M40 30H88L104 46V66L88 82H40L24 66V46Z" fill="url(#screen)"/>
  <polygon points="56,46 56,66 75,56" fill="#fff7f7"/>
  <path d="M29 92H99L104 97L99 102H29L24 97Z" fill="#34283f"/>
  <path d="M29 92H55L60 97L55 102H29L24 97Z" fill="#ff4b4b"/>
  <circle cx="60" cy="97" r="9" fill="#fff1f1"/>
  <circle cx="60" cy="97" r="4" fill="#ff4b4b"/>
</svg>
