<svg xmlns="http://www.w3.org/2000/svg" viewBox="0 0 128 128" role="img" aria-labelledby="title desc">
  <title id="title">Chrome Bookmark Tool icon</title>
  <desc id="desc">Dark chamfered square with a browser window and simple purple bookmark.</desc>
  <defs>
    <linearGradient id="bg" x1="18" y1="14" x2="110" y2="116" gradientUnits="userSpaceOnUse">
      <stop offset="0" stop-color="#20162f"/>
      <stop offset="1" stop-color="#120d1d"/>
    </linearGradient>
    <linearGradient id="bookmark" x1="50" y1="43" x2="79" y2="99" gradientUnits="userSpaceOnUse">
      <stop offset="0" stop-color="#B78CFF"/>
      <stop offset="1" stop-color="#6D32DE"/>
    </linearGradient>
  </defs>
  <path d="M24 0H104L128 24V104L104 128H24L0 104V24Z" fill="url(#bg)"/>
  <path d="M32 10H96L118 32V96L96 118H32L10 96V32Z" fill="none" stroke="#3e3157" stroke-width="2"/>
  <path d="M40 31H88L101 44V74L88 87H40L27 74V44Z" fill="#17111F" stroke="#5B477A" stroke-width="3"/>
  <path d="M27 46H101" stroke="#5B477A" stroke-width="3"/>
  <circle cx="39" cy="39" r="3" fill="#B18BFF"/>
  <circle cx="51" cy="39" r="3" fill="#7E61B8"/>
  <path d="M52 52H77V99L64.5 90L52 99Z" fill="url(#bookmark)"/>
  <path d="M37 66H49" stroke="#F4EEFF" stroke-width="6" stroke-linecap="round"/>
  <path d="M80 66H91" stroke="#F4EEFF" stroke-width="6" stroke-linecap="round"/>
</svg>
