<svg xmlns="http://www.w3.org/2000/svg" viewBox="0 0 128 128" role="img" aria-labelledby="title desc">
  <title id="title">Chrome Bookmark Tool icon</title>
  <desc id="desc">Dark rounded square with a browser window, bookmark ribbon, and single star.</desc>
  <defs>
    <linearGradient id="bg" x1="18" y1="14" x2="110" y2="116" gradientUnits="userSpaceOnUse">
      <stop offset="0" stop-color="#20162f"/>
      <stop offset="1" stop-color="#120d1d"/>
    </linearGradient>
    <linearGradient id="bookmark" x1="50" y1="40" x2="77" y2="96" gradientUnits="userSpaceOnUse">
      <stop offset="0" stop-color="#B58AFF"/>
      <stop offset="1" stop-color="#6D32DE"/>
    </linearGradient>
  </defs>
  <rect width="128" height="128" rx="28" fill="url(#bg)"/>
  <rect x="10" y="10" width="108" height="108" rx="22" fill="none" stroke="#3e3157" stroke-width="2"/>
  <rect x="27" y="31" width="74" height="50" rx="12" fill="#181320" stroke="#5A477A" stroke-width="3"/>
  <path d="M27 45H101" stroke="#5A477A" stroke-width="3"/>
  <circle cx="39" cy="38" r="3" fill="#9B7BE2"/>
  <circle cx="50" cy="38" r="3" fill="#7F64B6"/>
  <path d="M53 50H76V96L64.5 87.5L53 96Z" fill="url(#bookmark)"/>
  <path d="M38 65H51" stroke="#F4EEFF" stroke-width="6" stroke-linecap="round"/>
  <path d="M78 65H89" stroke="#F4EEFF" stroke-width="6" stroke-linecap="round"/>
  <path d="M94 51L98 59L107 60L100 66L102 75L94 70L86 75L88 66L81 60L90 59Z" fill="#F7F2FF"/>
</svg>
