<svg xmlns="http://www.w3.org/2000/svg" viewBox="0 0 128 128" role="img" aria-labelledby="title desc">
  <title id="title">Chrome Bookmark Tool icon</title>
  <desc id="desc">Dark rounded square with a bookmark, browser tab shape, and a small random sparkle accent.</desc>
  <defs>
    <linearGradient id="bg" x1="18" y1="14" x2="110" y2="116" gradientUnits="userSpaceOnUse">
      <stop offset="0" stop-color="#20162f"/>
      <stop offset="1" stop-color="#120d1d"/>
    </linearGradient>
    <linearGradient id="accent" x1="34" y1="28" x2="92" y2="96" gradientUnits="userSpaceOnUse">
      <stop offset="0" stop-color="#a46dff"/>
      <stop offset="1" stop-color="#6d32de"/>
    </linearGradient>
  </defs>
  <rect width="128" height="128" rx="28" fill="url(#bg)"/>
  <rect x="10" y="10" width="108" height="108" rx="22" fill="none" stroke="#3e3157" stroke-width="2"/>
  <rect x="28" y="28" width="72" height="50" rx="12" fill="#181320" stroke="#4d3c68" stroke-width="2"/>
  <path d="M28 41h72" stroke="#4d3c68" stroke-width="2"/>
  <circle cx="39" cy="35" r="3" fill="#7f64b6"/>
  <circle cx="49" cy="35" r="3" fill="#7f64b6"/>
  <circle cx="59" cy="35" r="3" fill="#7f64b6"/>
  <path d="M53 48h22v44l-11-8-11 8z" fill="url(#accent)"/>
  <path d="M43 64h8m24 0h10" stroke="#f4eeff" stroke-linecap="round" stroke-width="6"/>
  <path d="M90 49l4 7 8 1-6 6 2 8-8-4-8 4 2-8-6-6 8-1z" fill="#f7f2ff" opacity=".96"/>
</svg>
