<svg xmlns="http://www.w3.org/2000/svg" viewBox="0 0 128 128" role="img" aria-labelledby="title desc">
  <title id="title">Spotify Randomizer icon</title>
  <desc id="desc">Dark rounded square with a green music circle and clean shuffle mark.</desc>
  <defs>
    <linearGradient id="bg" x1="16" y1="12" x2="112" y2="116" gradientUnits="userSpaceOnUse">
      <stop offset="0" stop-color="#20162f"/>
      <stop offset="1" stop-color="#120d1d"/>
    </linearGradient>
    <linearGradient id="green" x1="30" y1="28" x2="98" y2="98" gradientUnits="userSpaceOnUse">
      <stop offset="0" stop-color="#46f295"/>
      <stop offset="1" stop-color="#169c57"/>
    </linearGradient>
  </defs>
  <rect width="128" height="128" rx="28" fill="url(#bg)"/>
  <rect x="10" y="10" width="108" height="108" rx="22" fill="none" stroke="#3e3157" stroke-width="2"/>
  <circle cx="64" cy="64" r="35" fill="url(#green)"/>
  <path d="M38 50H54C62 50 67 77 77 77H91" fill="none" stroke="#f7fff9" stroke-width="7" stroke-linecap="round" stroke-linejoin="round"/>
  <path d="M82 67L94 77L82 87" fill="none" stroke="#f7fff9" stroke-width="7" stroke-linecap="round" stroke-linejoin="round"/>
  <path d="M38 78H54C62 78 67 51 77 51H91" fill="none" stroke="#f7fff9" stroke-width="7" stroke-linecap="round" stroke-linejoin="round"/>
  <path d="M82 41L94 51L82 61" fill="none" stroke="#f7fff9" stroke-width="7" stroke-linecap="round" stroke-linejoin="round"/>
  <path d="M83 35V61.5A7.5 7.5 0 1 1 78 54.4V40L99 35V55.5A7.5 7.5 0 1 1 94 48.4V36.5Z" fill="#101318" opacity="0.95"/>
</svg>
