<svg xmlns="http://www.w3.org/2000/svg" viewBox="0 0 128 128" role="img" aria-labelledby="title desc">
  <title id="title">Spotify Randomizer icon</title>
  <desc id="desc">Dark chamfered square with a green music circle and clean shuffle arrows.</desc>
  <defs>
    <linearGradient id="bg" x1="16" y1="12" x2="112" y2="116" gradientUnits="userSpaceOnUse">
      <stop offset="0" stop-color="#20162f"/>
      <stop offset="1" stop-color="#120d1d"/>
    </linearGradient>
    <linearGradient id="green" x1="30" y1="28" x2="98" y2="99" gradientUnits="userSpaceOnUse">
      <stop offset="0" stop-color="#59F7A2"/>
      <stop offset="1" stop-color="#16A15A"/>
    </linearGradient>
  </defs>
  <path d="M24 0H104L128 24V104L104 128H24L0 104V24Z" fill="url(#bg)"/>
  <path d="M32 10H96L118 32V96L96 118H32L10 96V32Z" fill="none" stroke="#3e3157" stroke-width="2"/>
  <circle cx="64" cy="64" r="36" fill="url(#green)"/>
  <path d="M38 52H50C59 52 61 65 70 65H82" fill="none" stroke="#F8FFF9" stroke-width="7" stroke-linecap="round" stroke-linejoin="round"/>
  <path d="M77 55L88 65L77 75" fill="none" stroke="#F8FFF9" stroke-width="7" stroke-linecap="round" stroke-linejoin="round"/>
  <path d="M38 77H50C58 77 61 66 69 60" fill="none" stroke="#F8FFF9" stroke-width="7" stroke-linecap="round" stroke-linejoin="round" opacity="0.92"/>
  <path d="M72 40V76" stroke="#11151A" stroke-width="8" stroke-linecap="round"/>
  <path d="M72 42L91 38V50L72 55Z" fill="#11151A"/>
  <ellipse cx="64" cy="79" rx="10" ry="8" transform="rotate(-20 64 79)" fill="#11151A"/>
</svg>
