<svg xmlns="http://www.w3.org/2000/svg" viewBox="0 0 256 256" fill="none">
  <defs>
    <linearGradient id="workboard-stroke" x1="40" y1="28" x2="208" y2="220" gradientUnits="userSpaceOnUse">
      <stop offset="0" stop-color="#E9F6FF"/>
      <stop offset="0.52" stop-color="#7ED4FF"/>
      <stop offset="1" stop-color="#2E8BFF"/>
    </linearGradient>
    <linearGradient id="workboard-fill" x1="68" y1="54" x2="188" y2="198" gradientUnits="userSpaceOnUse">
      <stop offset="0" stop-color="#0E1826"/>
      <stop offset="1" stop-color="#0A1020"/>
    </linearGradient>
  </defs>
  <path d="M64 26H192L226 60V196L192 230H64L30 196V60Z" fill="url(#workboard-fill)" stroke="url(#workboard-stroke)" stroke-width="10"/>
  <path d="M88 86H168" stroke="url(#workboard-stroke)" stroke-width="8" stroke-linecap="round" opacity="0.9"/>
  <path d="M88 128H168" stroke="url(#workboard-stroke)" stroke-width="8" stroke-linecap="round" opacity="0.55"/>
  <path d="M88 170H144" stroke="url(#workboard-stroke)" stroke-width="8" stroke-linecap="round" opacity="0.4"/>
  <path d="M82 86L128 128L174 86" stroke="url(#workboard-stroke)" stroke-width="7" stroke-linecap="round" stroke-linejoin="round" opacity="0.5"/>
  <path d="M70 58H90L104 72V84L90 98H70L56 84V72Z" fill="#132135" stroke="url(#workboard-stroke)" stroke-width="8"/>
  <path d="M166 58H186L200 72V84L186 98H166L152 84V72Z" fill="#132135" stroke="url(#workboard-stroke)" stroke-width="8"/>
  <path d="M118 114H138L152 128V140L138 154H118L104 140V128Z" fill="#132135" stroke="url(#workboard-stroke)" stroke-width="8"/>
  <path d="M75 182H181L188 189L181 196H75L68 189Z" fill="#7ED4FF" opacity="0.92"/>
</svg>
